<?xml version="1.0" encoding="UTF-8"?>
<!-- Generated by Pixelmator Pro 3.5.7 -->
<svg width="823" height="822" viewBox="0 0 823 822" xmlns="http://www.w3.org/2000/svg">
    <path id="Color-Fill" fill="#154854" stroke="none" d="M 0 0 L 823 0 L 823 822 L 0 822 Z"/>
    <path id="Rectangle" fill="none" stroke="none" d="M 157.550858 457.4151 L 379.493927 679.358215 L 601.437012 457.4151 L 379.493927 235.472046 Z"/>
    <path id="SE" fill="#f3f3f3" fill-rule="evenodd" stroke="none" d="M 516.163391 375.626099 L 470.957031 375.624939 L 470.956299 402.209229 L 513.640503 402.210327 L 513.639587 437.234131 L 470.955383 437.232971 L 470.954712 464.661255 L 516.161072 464.662415 L 516.160095 499.686157 L 432.926086 499.68396 L 432.930298 340.600159 L 516.164307 340.602356 Z M 393.737427 381.319519 C 389.598419 377.662292 385.459473 374.95459 381.320435 373.196289 C 377.181396 371.437866 373.171722 370.558716 369.291321 370.558594 C 364.37616 370.558472 360.366486 371.82428 357.262085 374.356079 C 354.157684 376.887756 352.605499 380.193176 352.605377 384.272278 C 352.605316 387.085449 353.381317 389.406311 354.933411 391.234863 C 356.485504 393.063538 358.522644 394.645935 361.044891 395.982239 C 363.567078 397.318604 366.412659 398.479004 369.581604 399.463745 C 372.75058 400.448425 375.887146 401.503479 378.991425 402.628784 C 391.408569 407.130188 400.494873 413.143494 406.25061 420.668823 C 412.006317 428.194214 414.883972 438.005066 414.883667 450.101685 C 414.883453 458.259827 413.622131 465.644287 411.099701 472.255188 C 408.577271 478.866089 404.890808 484.527344 400.040192 489.239319 C 395.189575 493.951233 389.239624 497.608154 382.190186 500.210144 C 375.140747 502.812073 367.153656 504.112976 358.228729 504.112732 C 339.732208 504.112244 322.594208 498.13385 306.81427 486.17749 L 323.112701 452.842102 C 328.803802 458.327881 334.430206 462.407104 339.992035 465.079773 C 345.553864 467.75238 351.050964 469.088806 356.483521 469.088928 C 362.692169 469.089111 367.316254 467.542053 370.355957 464.447571 C 373.395691 461.35321 374.915588 457.836853 374.91568 453.898376 C 374.915741 451.507202 374.527771 449.432495 373.75177 447.674316 C 372.975708 445.916016 371.682312 444.298462 369.87149 442.821472 C 368.060699 441.344482 365.700195 439.973083 362.789917 438.707092 C 359.879669 437.44104 356.355072 436.034363 352.216003 434.487061 C 347.300873 432.799011 342.482849 430.935181 337.761749 428.895508 C 333.04068 426.855835 328.837036 424.148071 325.150757 420.772217 C 321.464478 417.396301 318.489655 413.141418 316.226227 408.007324 C 313.962799 402.873169 312.831207 396.367798 312.831421 388.490967 C 312.831635 380.614075 314.028259 373.47583 316.421326 367.075928 C 318.814392 360.676086 322.17749 355.190491 326.510712 350.619202 C 330.843964 346.047974 336.147186 342.496521 342.420563 339.964844 C 348.693909 337.433167 355.710907 336.16748 363.47168 336.167664 C 370.715088 336.167847 378.281708 337.258118 386.171814 339.438538 C 394.061859 341.618958 401.628448 344.819031 408.871735 349.039063 Z"/>
    <path id="Rectangle-copy" fill="none" stroke="#ffffff" stroke-width="8.850768" d="M 95 420.350159 L 412.237396 742.306519 L 729.474792 420.350159 L 412.237396 98.393799 Z"/>
    <path id="Rectangle-copy-3" fill="none" stroke="#ffffff" stroke-width="8.850768" d="M 95 477.04364 L 412.237396 799 L 729.474792 477.04364 L 412.237396 155.08728 Z"/>
    <path id="Rectangle-copy-2" fill="none" stroke="#ffffff" stroke-width="8.850768" d="M 95 363.95636 L 412.237396 685.91272 L 729.474792 363.95636 L 412.237396 42 Z"/>
</svg>
